<svg width="36" height="36" viewBox="0 0 36 36" fill="none" xmlns="http://www.w3.org/2000/svg">
<path d="M1.5 31.9C1.075 31.9 0.71875 31.7554 0.43125 31.4663C0.14375 31.1771 0 30.8187 0 30.3913C0 29.9638 0.14375 29.6083 0.43125 29.325C0.71875 29.0417 1.075 28.9 1.5 28.9H10.85C11.275 28.9 11.6313 29.0446 11.9187 29.3337C12.2063 29.6229 12.35 29.9813 12.35 30.4088C12.35 30.8363 12.2063 31.1917 11.9187 31.475C11.6313 31.7583 11.275 31.9 10.85 31.9H1.5ZM1.5 7.1C1.075 7.1 0.71875 6.95542 0.43125 6.66625C0.14375 6.37705 0 6.01872 0 5.59125C0 5.16375 0.14375 4.80833 0.43125 4.525C0.71875 4.24167 1.075 4.1 1.5 4.1H19.15C19.575 4.1 19.9312 4.24458 20.2188 4.53375C20.5063 4.82295 20.65 5.18128 20.65 5.60875C20.65 6.03625 20.5063 6.39167 20.2188 6.675C19.9312 6.95833 19.575 7.1 19.15 7.1H1.5ZM16.8413 36C16.4138 36 16.0583 35.8563 15.775 35.5688C15.4917 35.2812 15.35 34.925 15.35 34.5V26.25C15.35 25.825 15.4946 25.4688 15.7837 25.1812C16.073 24.8938 16.4313 24.75 16.8587 24.75C17.2862 24.75 17.6417 24.8938 17.925 25.1812C18.2083 25.4688 18.35 25.825 18.35 26.25V28.9H34.5C34.925 28.9 35.2812 29.0446 35.5688 29.3337C35.8563 29.6229 36 29.9813 36 30.4088C36 30.8363 35.8563 31.1917 35.5688 31.475C35.2812 31.7583 34.925 31.9 34.5 31.9H18.35V34.5C18.35 34.925 18.2054 35.2812 17.9163 35.5688C17.6271 35.8563 17.2687 36 16.8413 36ZM10.8413 23.6C10.4138 23.6 10.0583 23.4563 9.775 23.1688C9.49167 22.8813 9.35 22.525 9.35 22.1V19.5H1.5C1.075 19.5 0.71875 19.3554 0.43125 19.0663C0.14375 18.7771 0 18.4187 0 17.9913C0 17.5638 0.14375 17.2083 0.43125 16.925C0.71875 16.6417 1.075 16.5 1.5 16.5H9.35V13.8C9.35 13.375 9.49458 13.0188 9.78375 12.7312C10.0729 12.4438 10.4313 12.3 10.8587 12.3C11.2862 12.3 11.6417 12.4438 11.925 12.7312C12.2083 13.0188 12.35 13.375 12.35 13.8V22.1C12.35 22.525 12.2054 22.8813 11.9163 23.1688C11.6271 23.4563 11.2687 23.6 10.8413 23.6ZM16.85 19.5C16.425 19.5 16.0688 19.3554 15.7812 19.0663C15.4938 18.7771 15.35 18.4187 15.35 17.9913C15.35 17.5638 15.4938 17.2083 15.7812 16.925C16.0688 16.6417 16.425 16.5 16.85 16.5H34.5C34.925 16.5 35.2812 16.6446 35.5688 16.9338C35.8563 17.2229 36 17.5813 36 18.0087C36 18.4362 35.8563 18.7917 35.5688 19.075C35.2812 19.3583 34.925 19.5 34.5 19.5H16.85ZM25.1413 11.25C24.7138 11.25 24.3583 11.1062 24.075 10.8188C23.7917 10.5312 23.65 10.175 23.65 9.75V1.5C23.65 1.075 23.7946 0.71875 24.0837 0.43125C24.3729 0.14375 24.7313 0 25.1588 0C25.5863 0 25.9417 0.14375 26.225 0.43125C26.5083 0.71875 26.65 1.075 26.65 1.5V4.1H34.5C34.925 4.1 35.2812 4.24458 35.5688 4.53375C35.8563 4.82295 36 5.18128 36 5.60875C36 6.03625 35.8563 6.39167 35.5688 6.675C35.2812 6.95833 34.925 7.1 34.5 7.1H26.65V9.75C26.65 10.175 26.5054 10.5312 26.2163 10.8188C25.9271 11.1062 25.5687 11.25 25.1413 11.25Z" fill="white"/>
</svg>
