<svg width="36" height="32" viewBox="0 0 36 32" fill="none" xmlns="http://www.w3.org/2000/svg">
<path d="M13.4372 23.5C13.1038 23.5 12.8122 23.375 12.5622 23.125C12.3122 22.875 12.1872 22.5833 12.1872 22.25V10.375H11.958C11.7809 10.375 11.6325 10.3148 11.5127 10.1943C11.3929 10.0738 11.333 9.92447 11.333 9.74635C11.333 9.56823 11.3929 9.42014 11.5127 9.30208C11.6325 9.18403 11.7809 9.125 11.958 9.125H15.2497C15.2497 8.94444 15.3096 8.79514 15.4294 8.67708C15.5492 8.55903 15.6976 8.5 15.8747 8.5H20.1247C20.3018 8.5 20.4502 8.5599 20.57 8.67969C20.6898 8.79948 20.7497 8.94792 20.7497 9.125H24.0413C24.2184 9.125 24.3669 9.18524 24.4867 9.30573C24.6064 9.42623 24.6663 9.57553 24.6663 9.75365C24.6663 9.93177 24.6064 10.0799 24.4867 10.1979C24.3669 10.316 24.2184 10.375 24.0413 10.375H23.8122V22.25C23.8122 22.5833 23.6872 22.875 23.4372 23.125C23.1872 23.375 22.8955 23.5 22.5622 23.5H13.4372ZM13.4372 10.375V22.25H22.5622V10.375H13.4372ZM15.6455 19.8333C15.6455 20.0104 15.7058 20.1589 15.8262 20.2786C15.9467 20.3984 16.096 20.4583 16.2742 20.4583C16.4523 20.4583 16.6004 20.3984 16.7184 20.2786C16.8365 20.1589 16.8955 20.0104 16.8955 19.8333V12.7708C16.8955 12.5938 16.8353 12.4453 16.7148 12.3255C16.5943 12.2057 16.445 12.1458 16.2669 12.1458C16.0887 12.1458 15.9406 12.2057 15.8226 12.3255C15.7045 12.4453 15.6455 12.5938 15.6455 12.7708V19.8333ZM19.1038 19.8333C19.1038 20.0104 19.1641 20.1589 19.2846 20.2786C19.4051 20.3984 19.5544 20.4583 19.7325 20.4583C19.9106 20.4583 20.0587 20.3984 20.1768 20.2786C20.2948 20.1589 20.3538 20.0104 20.3538 19.8333V12.7708C20.3538 12.5938 20.2936 12.4453 20.1731 12.3255C20.0526 12.2057 19.9033 12.1458 19.7252 12.1458C19.5471 12.1458 19.399 12.2057 19.2809 12.3255C19.1629 12.4453 19.1038 12.5938 19.1038 12.7708V19.8333Z" fill="#7257CB"/>
</svg>
