<svg width="44" height="32" viewBox="0 0 44 32" fill="none" xmlns="http://www.w3.org/2000/svg">
<path d="M26 9.6C26 9.41613 26.0671 9.22715 26.2012 9.03305C26.3353 8.83898 26.4849 8.7113 26.65 8.65C27.65 8.28333 28.6723 8 29.7168 7.8C30.7613 7.6 31.8598 7.5 33.0124 7.5C33.7328 7.5 34.4441 7.54167 35.1465 7.625C35.8488 7.70833 36.5333 7.83333 37.2 8C37.4 8.06667 37.5833 8.18992 37.75 8.36975C37.9167 8.54962 38 8.75195 38 8.97675C38 9.35892 37.875 9.65 37.625 9.85C37.375 10.05 37.0667 10.1 36.7 10C36.14 9.83333 35.55 9.70833 34.93 9.625C34.31 9.54167 33.6667 9.5 33 9.5C32.0333 9.5 31.1 9.59167 30.2 9.775C29.3 9.95833 28.4167 10.2333 27.55 10.6C27.0833 10.7667 26.7083 10.7583 26.425 10.575C26.1417 10.3917 26 10.0667 26 9.6ZM26 20.6C26 20.4065 26.0671 20.2076 26.2012 20.0033C26.3353 19.7989 26.4849 19.6645 26.65 19.6C27.65 19.2333 28.6723 18.9583 29.7168 18.775C30.7613 18.5917 31.8598 18.5 33.0124 18.5C33.7328 18.5 34.4441 18.5417 35.1465 18.625C35.8488 18.7083 36.5333 18.8333 37.2 19C37.4 19.0667 37.5833 19.1899 37.75 19.3698C37.9167 19.5496 38 19.7519 38 19.9767C38 20.3589 37.875 20.65 37.625 20.85C37.375 21.05 37.0667 21.1 36.7 21C36.14 20.8333 35.55 20.7083 34.93 20.625C34.31 20.5417 33.6667 20.5 33 20.5C32.0333 20.5 31.1 20.5833 30.2 20.75C29.3 20.9167 28.4167 21.1833 27.55 21.55C27.0833 21.7167 26.7083 21.7167 26.425 21.55C26.1417 21.3833 26 21.0667 26 20.6ZM26 15.1C26 14.9161 26.0671 14.7272 26.2012 14.5331C26.3353 14.339 26.4849 14.2113 26.65 14.15C27.65 13.7833 28.6723 13.5 29.7168 13.3C30.7613 13.1 31.8598 13 33.0124 13C33.7328 13 34.4441 13.0417 35.1465 13.125C35.8488 13.2083 36.5333 13.3333 37.2 13.5C37.4 13.5667 37.5833 13.6899 37.75 13.8698C37.9167 14.0496 38 14.2519 38 14.4767C38 14.8589 37.875 15.15 37.625 15.35C37.375 15.55 37.0667 15.6 36.7 15.5C36.14 15.3333 35.55 15.2083 34.93 15.125C34.31 15.0417 33.6667 15 33 15C32.0333 15 31.1 15.0917 30.2 15.275C29.3 15.4583 28.4167 15.7333 27.55 16.1C27.0833 16.2667 26.7083 16.2583 26.425 16.075C26.1417 15.8917 26 15.5667 26 15.1ZM10.4 25C12.1855 25 13.9236 25.2083 15.6142 25.625C17.3047 26.0417 18.9667 26.6667 20.6 27.5V6.15C19.1 5.15 17.473 4.375 15.7191 3.825C13.9651 3.275 12.1921 3 10.4 3C9.13333 3 7.89167 3.15833 6.675 3.475C5.45833 3.79167 4.23333 4.18333 3 4.65V26.35C4.03333 25.8833 5.20833 25.5417 6.525 25.325C7.84167 25.1083 9.13333 25 10.4 25ZM23.6 27.5C25.2667 26.6667 26.9 26.0417 28.5 25.625C30.1 25.2083 31.8 25 33.6 25C34.8667 25 36.175 25.1 37.525 25.3C38.875 25.5 40.0333 25.7667 41 26.1V4.65C39.8667 4.08333 38.6696 3.66667 37.4089 3.4C36.1481 3.13333 34.8785 3 33.6 3C31.8 3 30.0583 3.275 28.375 3.825C26.6917 4.375 25.1 5.15 23.6 6.15V27.5ZM22.1 31.45C21.8487 31.45 21.6109 31.425 21.3865 31.375C21.1622 31.325 20.9667 31.2333 20.8 31.1C19.2333 30.1333 17.5692 29.3833 15.8077 28.85C14.0461 28.3167 12.2435 28.05 10.4 28.05C9.1821 28.05 7.98597 28.2 6.8116 28.5C5.6372 28.8 4.46667 29.1667 3.3 29.6C2.53 29.9667 1.7875 29.9167 1.0725 29.45C0.3575 28.9833 0 28.3167 0 27.45V4.3C0 3.8 0.116667 3.34167 0.35 2.925C0.583333 2.50833 0.933333 2.18333 1.4 1.95C2.8 1.28333 4.25658 0.791667 5.76975 0.475C7.28288 0.158333 8.8263 0 10.4 0C12.5 0 14.5417 0.283333 16.525 0.85C18.5083 1.41667 20.3667 2.28333 22.1 3.45C23.8 2.28333 25.625 1.41667 27.575 0.85C29.525 0.283333 31.5333 0 33.6 0C35.1623 0 36.6945 0.158333 38.1967 0.475C39.6989 0.791667 41.15 1.28333 42.55 1.95C43.0167 2.18333 43.375 2.50833 43.625 2.925C43.875 3.34167 44 3.8 44 4.3V27.45C44 28.3798 43.625 29.0873 42.875 29.5724C42.125 30.0575 41.3833 30.0667 40.65 29.6C39.5167 29.1333 38.3628 28.7583 37.1884 28.475C36.014 28.1917 34.8179 28.05 33.6 28.05C31.7908 28.05 30.0219 28.3167 28.2931 28.85C26.5644 29.3833 24.9333 30.1333 23.4 31.1C23.2333 31.2333 23.0378 31.325 22.8135 31.375C22.5891 31.425 22.3513 31.45 22.1 31.45Z" fill="white"/>
</svg>
