<svg width="52" height="52" viewBox="0 0 52 52" fill="none" xmlns="http://www.w3.org/2000/svg">
<path d="M26.0004 27.5749L18.1254 35.4499C17.9004 35.6749 17.6379 35.7874 17.3379 35.7874C17.0379 35.7874 16.7754 35.6749 16.5504 35.4499C16.3254 35.2249 16.2129 34.9624 16.2129 34.6624C16.2129 34.3624 16.3254 34.0999 16.5504 33.8749L24.4254 25.9999L16.5504 18.1249C16.3254 17.8999 16.2129 17.6374 16.2129 17.3374C16.2129 17.0374 16.3254 16.7749 16.5504 16.5499C16.7754 16.3249 17.0379 16.2124 17.3379 16.2124C17.6379 16.2124 17.9004 16.3249 18.1254 16.5499L26.0004 24.4249L33.8754 16.5499C34.1004 16.3249 34.3629 16.2124 34.6629 16.2124C34.9629 16.2124 35.2254 16.3249 35.4504 16.5499C35.6754 16.7749 35.7879 17.0374 35.7879 17.3374C35.7879 17.6374 35.6754 17.8999 35.4504 18.1249L27.5754 25.9999L35.4504 33.8749C35.6754 34.0999 35.7879 34.3624 35.7879 34.6624C35.7879 34.9624 35.6754 35.2249 35.4504 35.4499C35.2254 35.6749 34.9629 35.7874 34.6629 35.7874C34.3629 35.7874 34.1004 35.6749 33.8754 35.4499L26.0004 27.5749Z" fill="#393A3D"/>
</svg>
