<svg width="18" height="18" viewBox="0 0 18 18" fill="none" xmlns="http://www.w3.org/2000/svg">
<path d="M7.08366 17.3332L6.66699 14.7082C6.4031 14.6109 6.12533 14.479 5.83366 14.3123C5.54199 14.1457 5.28505 13.9721 5.06283 13.7915L2.60449 14.9165L0.666992 11.4998L2.91699 9.854C2.88921 9.729 2.87185 9.58664 2.86491 9.42692C2.85796 9.2672 2.85449 9.12484 2.85449 8.99984C2.85449 8.87484 2.85796 8.73248 2.86491 8.57275C2.87185 8.41303 2.88921 8.27067 2.91699 8.14567L0.666992 6.49984L2.60449 3.08317L5.06283 4.20817C5.28505 4.02761 5.54199 3.854 5.83366 3.68734C6.12533 3.52067 6.4031 3.39567 6.66699 3.31234L7.08366 0.666504H10.917L11.3337 3.2915C11.5975 3.38873 11.8788 3.5172 12.1774 3.67692C12.476 3.83664 12.7295 4.01373 12.9378 4.20817L15.3962 3.08317L17.3337 6.49984L15.0837 8.104C15.1114 8.24289 15.1288 8.3922 15.1357 8.55192C15.1427 8.71164 15.1462 8.86095 15.1462 8.99984C15.1462 9.13873 15.1427 9.28456 15.1357 9.43734C15.1288 9.59011 15.1114 9.73595 15.0837 9.87484L17.3337 11.4998L15.3962 14.9165L12.9378 13.7915C12.7156 13.9721 12.4621 14.1491 12.1774 14.3228C11.8927 14.4964 11.6114 14.6248 11.3337 14.7082L10.917 17.3332H7.08366ZM9.00033 11.7082C9.75033 11.7082 10.3892 11.4443 10.917 10.9165C11.4448 10.3887 11.7087 9.74984 11.7087 8.99984C11.7087 8.24984 11.4448 7.61095 10.917 7.08317C10.3892 6.55539 9.75033 6.2915 9.00033 6.2915C8.25033 6.2915 7.61144 6.55539 7.08366 7.08317C6.55588 7.61095 6.29199 8.24984 6.29199 8.99984C6.29199 9.74984 6.55588 10.3887 7.08366 10.9165C7.61144 11.4443 8.25033 11.7082 9.00033 11.7082ZM9.00033 10.4582C8.59755 10.4582 8.2538 10.3158 7.96908 10.0311C7.68435 9.74636 7.54199 9.40261 7.54199 8.99984C7.54199 8.59706 7.68435 8.25331 7.96908 7.96859C8.2538 7.68386 8.59755 7.5415 9.00033 7.5415C9.4031 7.5415 9.74685 7.68386 10.0316 7.96859C10.3163 8.25331 10.4587 8.59706 10.4587 8.99984C10.4587 9.40261 10.3163 9.74636 10.0316 10.0311C9.74685 10.3158 9.4031 10.4582 9.00033 10.4582ZM8.08366 16.0832H9.91699L10.2087 13.7498C10.667 13.6387 11.101 13.4651 11.5107 13.229C11.9205 12.9929 12.292 12.7082 12.6253 12.3748L14.8337 13.3332L15.667 11.8332L13.7087 10.3957C13.7642 10.1596 13.8094 9.92692 13.8441 9.69775C13.8788 9.46859 13.8962 9.23595 13.8962 8.99984C13.8962 8.76373 13.8823 8.53109 13.8545 8.30192C13.8267 8.07275 13.7781 7.84011 13.7087 7.604L15.667 6.1665L14.8337 4.6665L12.6253 5.62484C12.3059 5.26373 11.9448 4.96164 11.542 4.71859C11.1392 4.47553 10.6948 4.31928 10.2087 4.24984L9.91699 1.9165H8.08366L7.79199 4.24984C7.31977 4.34706 6.8788 4.51373 6.46908 4.74984C6.05935 4.98595 5.69477 5.27761 5.37533 5.62484L3.16699 4.6665L2.33366 6.1665L4.29199 7.604C4.23644 7.84011 4.1913 8.07275 4.15658 8.30192C4.12185 8.53109 4.10449 8.76373 4.10449 8.99984C4.10449 9.23595 4.12185 9.46859 4.15658 9.69775C4.1913 9.92692 4.23644 10.1596 4.29199 10.3957L2.33366 11.8332L3.16699 13.3332L5.37533 12.3748C5.70866 12.7082 6.08019 12.9929 6.48991 13.229C6.89963 13.4651 7.33366 13.6387 7.79199 13.7498L8.08366 16.0832Z" fill="#7257CB"/>
</svg>
