<svg width="36" height="36" viewBox="0 0 36 36" fill="none" xmlns="http://www.w3.org/2000/svg">
<path d="M19.125 13.5V5.625C19.125 5.30625 19.2328 5.03906 19.4484 4.82344C19.6641 4.60781 19.9313 4.5 20.25 4.5H30.375C30.6938 4.5 30.9609 4.60781 31.1766 4.82344C31.3922 5.03906 31.5 5.30625 31.5 5.625V13.5C31.5 13.8188 31.3922 14.0859 31.1766 14.3016C30.9609 14.5172 30.6938 14.625 30.375 14.625H20.25C19.9313 14.625 19.6641 14.5172 19.4484 14.3016C19.2328 14.0859 19.125 13.8188 19.125 13.5ZM4.5 18V5.625C4.5 5.30625 4.60781 5.03906 4.82344 4.82344C5.03906 4.60781 5.30625 4.5 5.625 4.5H15.75C16.0688 4.5 16.3359 4.60781 16.5516 4.82344C16.7672 5.03906 16.875 5.30625 16.875 5.625V18C16.875 18.3188 16.7672 18.5859 16.5516 18.8016C16.3359 19.0172 16.0688 19.125 15.75 19.125H5.625C5.30625 19.125 5.03906 19.0172 4.82344 18.8016C4.60781 18.5859 4.5 18.3188 4.5 18ZM19.125 30.375V18C19.125 17.6813 19.2328 17.4141 19.4484 17.1984C19.6641 16.9828 19.9313 16.875 20.25 16.875H30.375C30.6938 16.875 30.9609 16.9828 31.1766 17.1984C31.3922 17.4141 31.5 17.6813 31.5 18V30.375C31.5 30.6938 31.3922 30.9609 31.1766 31.1766C30.9609 31.3922 30.6938 31.5 30.375 31.5H20.25C19.9313 31.5 19.6641 31.3922 19.4484 31.1766C19.2328 30.9609 19.125 30.6938 19.125 30.375ZM4.5 30.375V22.5C4.5 22.1813 4.60781 21.9141 4.82344 21.6984C5.03906 21.4828 5.30625 21.375 5.625 21.375H15.75C16.0688 21.375 16.3359 21.4828 16.5516 21.6984C16.7672 21.9141 16.875 22.1813 16.875 22.5V30.375C16.875 30.6938 16.7672 30.9609 16.5516 31.1766C16.3359 31.3922 16.0688 31.5 15.75 31.5H5.625C5.30625 31.5 5.03906 31.3922 4.82344 31.1766C4.60781 30.9609 4.5 30.6938 4.5 30.375ZM6.75 16.875H14.625V6.75H6.75V16.875ZM21.375 29.25H29.25V19.125H21.375V29.25ZM21.375 12.375H29.25V6.75H21.375V12.375ZM6.75 29.25H14.625V23.625H6.75V29.25Z" fill="#FEFEFE"/>
</svg>
