<svg width="20" height="20" viewBox="0 0 20 20" fill="none" xmlns="http://www.w3.org/2000/svg">
<path d="M5.43717 17.5C5.10384 17.5 4.81217 17.375 4.56217 17.125C4.31217 16.875 4.18717 16.5833 4.18717 16.25V4.375H3.95801C3.78092 4.375 3.63249 4.31476 3.5127 4.19427C3.3929 4.07377 3.33301 3.92447 3.33301 3.74635C3.33301 3.56823 3.3929 3.42014 3.5127 3.30208C3.63249 3.18403 3.78092 3.125 3.95801 3.125H7.24967C7.24967 2.94444 7.30957 2.79514 7.42936 2.67708C7.54915 2.55903 7.69759 2.5 7.87467 2.5H12.1247C12.3018 2.5 12.4502 2.5599 12.57 2.67969C12.6898 2.79948 12.7497 2.94792 12.7497 3.125H16.0413C16.2184 3.125 16.3669 3.18524 16.4867 3.30573C16.6064 3.42623 16.6663 3.57553 16.6663 3.75365C16.6663 3.93177 16.6064 4.07986 16.4867 4.19792C16.3669 4.31597 16.2184 4.375 16.0413 4.375H15.8122V16.25C15.8122 16.5833 15.6872 16.875 15.4372 17.125C15.1872 17.375 14.8955 17.5 14.5622 17.5H5.43717ZM5.43717 4.375V16.25H14.5622V4.375H5.43717ZM7.64551 13.8333C7.64551 14.0104 7.70575 14.1589 7.82624 14.2786C7.94674 14.3984 8.09604 14.4583 8.27415 14.4583C8.45228 14.4583 8.60037 14.3984 8.71842 14.2786C8.83648 14.1589 8.89551 14.0104 8.89551 13.8333V6.77083C8.89551 6.59375 8.83526 6.44531 8.71478 6.32552C8.59428 6.20573 8.44497 6.14583 8.26686 6.14583C8.08874 6.14583 7.94065 6.20573 7.82259 6.32552C7.70454 6.44531 7.64551 6.59375 7.64551 6.77083V13.8333ZM11.1038 13.8333C11.1038 14.0104 11.1641 14.1589 11.2846 14.2786C11.4051 14.3984 11.5544 14.4583 11.7325 14.4583C11.9106 14.4583 12.0587 14.3984 12.1768 14.2786C12.2948 14.1589 12.3538 14.0104 12.3538 13.8333V6.77083C12.3538 6.59375 12.2936 6.44531 12.1731 6.32552C12.0526 6.20573 11.9033 6.14583 11.7252 6.14583C11.5471 6.14583 11.399 6.20573 11.2809 6.32552C11.1629 6.44531 11.1038 6.59375 11.1038 6.77083V13.8333Z" fill="#7257CB"/>
</svg>
