<svg width="64" height="64" viewBox="0 0 64 64" fill="none" xmlns="http://www.w3.org/2000/svg">
<path d="M36 25.6C36 25.4161 36.0671 25.2272 36.2012 25.0331C36.3353 24.839 36.4849 24.7113 36.65 24.65C37.65 24.2833 38.6723 24 39.7168 23.8C40.7613 23.6 41.8598 23.5 43.0124 23.5C43.7328 23.5 44.4441 23.5417 45.1465 23.625C45.8488 23.7083 46.5333 23.8333 47.2 24C47.4 24.0667 47.5833 24.1899 47.75 24.3698C47.9167 24.5496 48 24.752 48 24.9768C48 25.3589 47.875 25.65 47.625 25.85C47.375 26.05 47.0667 26.1 46.7 26C46.14 25.8333 45.55 25.7083 44.93 25.625C44.31 25.5417 43.6667 25.5 43 25.5C42.0333 25.5 41.1 25.5917 40.2 25.775C39.3 25.9583 38.4167 26.2333 37.55 26.6C37.0833 26.7667 36.7083 26.7583 36.425 26.575C36.1417 26.3917 36 26.0667 36 25.6ZM36 36.6C36 36.4065 36.0671 36.2076 36.2012 36.0033C36.3353 35.7989 36.4849 35.6645 36.65 35.6C37.65 35.2333 38.6723 34.9583 39.7168 34.775C40.7613 34.5917 41.8598 34.5 43.0124 34.5C43.7328 34.5 44.4441 34.5417 45.1465 34.625C45.8488 34.7083 46.5333 34.8333 47.2 35C47.4 35.0667 47.5833 35.1899 47.75 35.3698C47.9167 35.5496 48 35.752 48 35.9768C48 36.3589 47.875 36.65 47.625 36.85C47.375 37.05 47.0667 37.1 46.7 37C46.14 36.8333 45.55 36.7083 44.93 36.625C44.31 36.5417 43.6667 36.5 43 36.5C42.0333 36.5 41.1 36.5833 40.2 36.75C39.3 36.9167 38.4167 37.1833 37.55 37.55C37.0833 37.7167 36.7083 37.7167 36.425 37.55C36.1417 37.3833 36 37.0667 36 36.6ZM36 31.1C36 30.9161 36.0671 30.7272 36.2012 30.5331C36.3353 30.339 36.4849 30.2113 36.65 30.15C37.65 29.7833 38.6723 29.5 39.7168 29.3C40.7613 29.1 41.8598 29 43.0124 29C43.7328 29 44.4441 29.0417 45.1465 29.125C45.8488 29.2083 46.5333 29.3333 47.2 29.5C47.4 29.5667 47.5833 29.6899 47.75 29.8698C47.9167 30.0496 48 30.252 48 30.4768C48 30.8589 47.875 31.15 47.625 31.35C47.375 31.55 47.0667 31.6 46.7 31.5C46.14 31.3333 45.55 31.2083 44.93 31.125C44.31 31.0417 43.6667 31 43 31C42.0333 31 41.1 31.0917 40.2 31.275C39.3 31.4583 38.4167 31.7333 37.55 32.1C37.0833 32.2667 36.7083 32.2583 36.425 32.075C36.1417 31.8917 36 31.5667 36 31.1ZM20.4 41C22.1855 41 23.9236 41.2083 25.6142 41.625C27.3047 42.0417 28.9667 42.6667 30.6 43.5V22.15C29.1 21.15 27.473 20.375 25.7191 19.825C23.9651 19.275 22.1921 19 20.4 19C19.1333 19 17.8917 19.1583 16.675 19.475C15.4583 19.7917 14.2333 20.1833 13 20.65V42.35C14.0333 41.8833 15.2083 41.5417 16.525 41.325C17.8417 41.1083 19.1333 41 20.4 41ZM33.6 43.5C35.2667 42.6667 36.9 42.0417 38.5 41.625C40.1 41.2083 41.8 41 43.6 41C44.8667 41 46.175 41.1 47.525 41.3C48.875 41.5 50.0333 41.7667 51 42.1V20.65C49.8667 20.0833 48.6696 19.6667 47.4089 19.4C46.1481 19.1333 44.8785 19 43.6 19C41.8 19 40.0583 19.275 38.375 19.825C36.6917 20.375 35.1 21.15 33.6 22.15V43.5ZM32.1 47.45C31.8487 47.45 31.6109 47.425 31.3865 47.375C31.1622 47.325 30.9667 47.2333 30.8 47.1C29.2333 46.1333 27.5692 45.3833 25.8077 44.85C24.0461 44.3167 22.2435 44.05 20.4 44.05C19.1821 44.05 17.986 44.2 16.8116 44.5C15.6372 44.8 14.4667 45.1667 13.3 45.6C12.53 45.9667 11.7875 45.9167 11.0725 45.45C10.3575 44.9833 10 44.3167 10 43.45V20.3C10 19.8 10.1167 19.3417 10.35 18.925C10.5833 18.5083 10.9333 18.1833 11.4 17.95C12.8 17.2833 14.2566 16.7917 15.7698 16.475C17.2829 16.1583 18.8263 16 20.4 16C22.5 16 24.5417 16.2833 26.525 16.85C28.5083 17.4167 30.3667 18.2833 32.1 19.45C33.8 18.2833 35.625 17.4167 37.575 16.85C39.525 16.2833 41.5333 16 43.6 16C45.1623 16 46.6945 16.1583 48.1967 16.475C49.6989 16.7917 51.15 17.2833 52.55 17.95C53.0167 18.1833 53.375 18.5083 53.625 18.925C53.875 19.3417 54 19.8 54 20.3V43.45C54 44.3798 53.625 45.0873 52.875 45.5724C52.125 46.0575 51.3833 46.0667 50.65 45.6C49.5167 45.1333 48.3628 44.7583 47.1884 44.475C46.014 44.1917 44.8179 44.05 43.6 44.05C41.7908 44.05 40.0219 44.3167 38.2931 44.85C36.5644 45.3833 34.9333 46.1333 33.4 47.1C33.2333 47.2333 33.0378 47.325 32.8135 47.375C32.5891 47.425 32.3513 47.45 32.1 47.45Z" fill="#FD4E35"/>
<rect x="42" y="33" width="20" height="20" rx="10" fill="white"/>
<path d="M47.8938 50C47.5938 50 47.3313 49.8833 47.1063 49.65C46.8813 49.4167 46.7688 49.1444 46.7688 48.8333V37.75H46.5625C46.4031 37.75 46.2695 37.6938 46.1617 37.5813C46.0539 37.4689 46 37.3295 46 37.1633C46 36.997 46.0539 36.8588 46.1617 36.7486C46.2695 36.6384 46.4031 36.5833 46.5625 36.5833H49.525C49.525 36.4148 49.5789 36.2755 49.6867 36.1653C49.7945 36.0551 49.9281 36 50.0875 36H53.9125C54.0719 36 54.2055 36.0559 54.3133 36.1677C54.4211 36.2795 54.475 36.4181 54.475 36.5833H57.4375C57.5969 36.5833 57.7305 36.6396 57.8383 36.752C57.9461 36.8645 58 37.0038 58 37.1701C58 37.3363 57.9461 37.4745 57.8383 37.5847C57.7305 37.6949 57.5969 37.75 57.4375 37.75H57.2313V48.8333C57.2313 49.1444 57.1188 49.4167 56.8938 49.65C56.6688 49.8833 56.4062 50 56.1063 50H47.8938ZM47.8938 37.75V48.8333H56.1063V37.75H47.8938ZM49.8813 46.5778C49.8813 46.7431 49.9355 46.8816 50.0439 46.9934C50.1524 47.1052 50.2867 47.1611 50.447 47.1611C50.6073 47.1611 50.7406 47.1052 50.8469 46.9934C50.9531 46.8816 51.0063 46.7431 51.0063 46.5778V39.9861C51.0063 39.8208 50.952 39.6823 50.8436 39.5705C50.7351 39.4587 50.6008 39.4028 50.4405 39.4028C50.2802 39.4028 50.1469 39.4587 50.0406 39.5705C49.9344 39.6823 49.8813 39.8208 49.8813 39.9861V46.5778ZM52.9938 46.5778C52.9938 46.7431 53.048 46.8816 53.1564 46.9934C53.2649 47.1052 53.3992 47.1611 53.5595 47.1611C53.7198 47.1611 53.8531 47.1052 53.9594 46.9934C54.0656 46.8816 54.1188 46.7431 54.1188 46.5778V39.9861C54.1188 39.8208 54.0645 39.6823 53.9561 39.5705C53.8476 39.4587 53.7133 39.4028 53.553 39.4028C53.3927 39.4028 53.2594 39.4587 53.1531 39.5705C53.0469 39.6823 52.9938 39.8208 52.9938 39.9861V46.5778Z" fill="#FD4E35"/>
</svg>
