<svg width="65" height="64" viewBox="0 0 65 64" fill="none" xmlns="http://www.w3.org/2000/svg">
<path d="M37.6667 23.4667C37.6667 23.2216 37.7561 22.9696 37.9349 22.7108C38.1138 22.4521 38.3132 22.2818 38.5333 22.2001C39.8667 21.7112 41.2297 21.3334 42.6224 21.0667C44.0151 20.8001 45.4798 20.6667 47.0165 20.6667C47.977 20.6667 48.9255 20.7223 49.862 20.8334C50.7984 20.9445 51.7111 21.1112 52.6 21.3334C52.8667 21.4223 53.1111 21.5866 53.3333 21.8264C53.5556 22.0662 53.6667 22.336 53.6667 22.6357C53.6667 23.1453 53.5 23.5334 53.1667 23.8001C52.8333 24.0667 52.4222 24.1334 51.9333 24.0001C51.1867 23.7779 50.4 23.6112 49.5733 23.5001C48.7467 23.389 47.8889 23.3334 47 23.3334C45.7111 23.3334 44.4667 23.4556 43.2667 23.7001C42.0667 23.9445 40.8889 24.3112 39.7333 24.8001C39.1111 25.0223 38.6111 25.0112 38.2333 24.7667C37.8556 24.5223 37.6667 24.089 37.6667 23.4667ZM37.6667 38.1334C37.6667 37.8754 37.7561 37.6101 37.9349 37.3377C38.1138 37.0653 38.3132 36.8861 38.5333 36.8001C39.8667 36.3112 41.2297 35.9445 42.6224 35.7001C44.0151 35.4556 45.4798 35.3334 47.0165 35.3334C47.977 35.3334 48.9255 35.389 49.862 35.5001C50.7984 35.6112 51.7111 35.7779 52.6 36.0001C52.8667 36.089 53.1111 36.2533 53.3333 36.4931C53.5556 36.7329 53.6667 37.0027 53.6667 37.3024C53.6667 37.812 53.5 38.2001 53.1667 38.4667C52.8333 38.7334 52.4222 38.8001 51.9333 38.6667C51.1867 38.4445 50.4 38.2779 49.5733 38.1667C48.7467 38.0556 47.8889 38.0001 47 38.0001C45.7111 38.0001 44.4667 38.1112 43.2667 38.3334C42.0667 38.5556 40.8889 38.9112 39.7333 39.4001C39.1111 39.6223 38.6111 39.6223 38.2333 39.4001C37.8556 39.1779 37.6667 38.7556 37.6667 38.1334ZM37.6667 30.8001C37.6667 30.5549 37.7561 30.3029 37.9349 30.0441C38.1138 29.7854 38.3132 29.6151 38.5333 29.5334C39.8667 29.0445 41.2297 28.6667 42.6224 28.4001C44.0151 28.1334 45.4798 28.0001 47.0165 28.0001C47.977 28.0001 48.9255 28.0556 49.862 28.1667C50.7984 28.2779 51.7111 28.4445 52.6 28.6667C52.8667 28.7556 53.1111 28.92 53.3333 29.1597C53.5556 29.3996 53.6667 29.6693 53.6667 29.9691C53.6667 30.4786 53.5 30.8667 53.1667 31.1334C52.8333 31.4001 52.4222 31.4667 51.9333 31.3334C51.1867 31.1112 50.4 30.9445 49.5733 30.8334C48.7467 30.7223 47.8889 30.6667 47 30.6667C45.7111 30.6667 44.4667 30.789 43.2667 31.0334C42.0667 31.2779 40.8889 31.6445 39.7333 32.1334C39.1111 32.3556 38.6111 32.3445 38.2333 32.1001C37.8556 31.8556 37.6667 31.4223 37.6667 30.8001ZM16.8667 44.0001C19.2474 44.0001 21.5648 44.2779 23.8189 44.8334C26.073 45.389 28.2889 46.2223 30.4667 47.3334V18.8667C28.4667 17.5334 26.2974 16.5001 23.9587 15.7667C21.6202 15.0334 19.2561 14.6667 16.8667 14.6667C15.1778 14.6667 13.5222 14.8779 11.9 15.3001C10.2778 15.7223 8.64444 16.2445 7 16.8667V45.8001C8.37778 45.1779 9.94444 44.7223 11.7 44.4334C13.4556 44.1445 15.1778 44.0001 16.8667 44.0001ZM34.4667 47.3334C36.6889 46.2223 38.8667 45.389 41 44.8334C43.1333 44.2779 45.4 44.0001 47.8 44.0001C49.4889 44.0001 51.2333 44.1334 53.0333 44.4001C54.8333 44.6667 56.3778 45.0223 57.6667 45.4668V16.8667C56.1556 16.1112 54.5595 15.5556 52.8785 15.2001C51.1975 14.8445 49.5047 14.6667 47.8 14.6667C45.4 14.6667 43.0778 15.0334 40.8333 15.7667C38.5889 16.5001 36.4667 17.5334 34.4667 18.8667V47.3334ZM32.4667 52.6001C32.1316 52.6001 31.8146 52.5667 31.5154 52.5001C31.2162 52.4334 30.9556 52.3112 30.7333 52.1334C28.6444 50.8445 26.4256 49.8445 24.0769 49.1334C21.7281 48.4223 19.3247 48.0667 16.8667 48.0667C15.2428 48.0667 13.648 48.2668 12.0821 48.6668C10.5163 49.0667 8.95556 49.5556 7.4 50.1334C6.37333 50.6223 5.38333 50.5556 4.43 49.9334C3.47667 49.3112 3 48.4223 3 47.2668V16.4001C3 15.7334 3.15556 15.1223 3.46667 14.5667C3.77778 14.0112 4.24444 13.5779 4.86667 13.2667C6.73333 12.3779 8.67545 11.7223 10.693 11.3001C12.7105 10.8779 14.7684 10.6667 16.8667 10.6667C19.6667 10.6667 22.3889 11.0445 25.0333 11.8001C27.6778 12.5556 30.1556 13.7112 32.4667 15.2667C34.7333 13.7112 37.1667 12.5556 39.7667 11.8001C42.3667 11.0445 45.0444 10.6667 47.8 10.6667C49.883 10.6667 51.926 10.8779 53.9289 11.3001C55.9319 11.7223 57.8667 12.3779 59.7333 13.2667C60.3556 13.5779 60.8333 14.0112 61.1667 14.5667C61.5 15.1223 61.6667 15.7334 61.6667 16.4001V47.2668C61.6667 48.5065 61.1667 49.4498 60.1667 50.0965C59.1667 50.7434 58.1778 50.7556 57.2 50.1334C55.6889 49.5112 54.1504 49.0112 52.5845 48.6334C51.0187 48.2556 49.4239 48.0667 47.8 48.0667C45.3878 48.0667 43.0292 48.4223 40.7242 49.1334C38.4192 49.8445 36.2444 50.8445 34.2 52.1334C33.9778 52.3112 33.7171 52.4334 33.4179 52.5001C33.1188 52.5667 32.8017 52.6001 32.4667 52.6001Z" fill="#7257CB"/>
</svg>
