<svg width="64" height="64" viewBox="0 0 64 64" fill="none" xmlns="http://www.w3.org/2000/svg">
<g clip-path="url(#clip0_190_625)">
<path d="M2 48C1.43333 48 0.958333 47.8083 0.575 47.425C0.191667 47.0417 0 46.5667 0 46V44.4667C0 42.7127 0.916667 41.3076 2.75 40.2512C4.58333 39.1948 7 38.6667 10 38.6667C10.5333 38.6667 11.0556 38.6833 11.5667 38.7167C12.0778 38.75 12.5778 38.8 13.0667 38.8667C12.7111 39.6222 12.4444 40.3975 12.2667 41.1926C12.0889 41.9877 12 42.8346 12 43.7333V48H2ZM18 48C17.4333 48 16.9583 47.8083 16.575 47.425C16.1917 47.0417 16 46.5667 16 46V43.7333C16 40.8444 17.4778 38.5 20.4333 36.7C23.3889 34.9 27.2444 34 32 34C36.8 34 40.6667 34.9 43.6 36.7C46.5333 38.5 48 40.8444 48 43.7333V46C48 46.5667 47.8083 47.0417 47.425 47.425C47.0417 47.8083 46.5667 48 46 48H18ZM52 48V43.7333C52 42.8346 51.9111 41.9877 51.7333 41.1926C51.5556 40.3975 51.2889 39.6162 50.9333 38.8485C51.4222 38.7717 51.9222 38.7222 52.4333 38.7C52.9444 38.6778 53.4685 38.6667 54.0055 38.6667C56.9796 38.6667 59.3889 39.1948 61.2333 40.2512C63.0778 41.3076 64 42.7127 64 44.4667V46C64 46.5667 63.8083 47.0417 63.425 47.425C63.0417 47.8083 62.5667 48 62 48H52ZM32 38C28.4 38 25.5 38.5444 23.3 39.6333C21.1 40.7222 20 42.0889 20 43.7333V44H44V43.6667C44 42.0667 42.9 40.7222 40.7 39.6333C38.5 38.5444 35.6 38 32 38ZM9.99407 36.6667C8.70913 36.6667 7.61111 36.2091 6.7 35.2941C5.78889 34.379 5.33333 33.279 5.33333 31.9941C5.33333 30.7091 5.79087 29.6111 6.70593 28.7C7.62096 27.7889 8.72096 27.3333 10.0059 27.3333C11.2909 27.3333 12.3889 27.7909 13.3 28.7059C14.2111 29.621 14.6667 30.721 14.6667 32.0059C14.6667 33.2909 14.2091 34.3889 13.2941 35.3C12.379 36.2111 11.279 36.6667 9.99407 36.6667ZM53.9941 36.6667C52.7091 36.6667 51.6111 36.2091 50.7 35.2941C49.7889 34.379 49.3333 33.279 49.3333 31.9941C49.3333 30.7091 49.7909 29.6111 50.7059 28.7C51.621 27.7889 52.721 27.3333 54.0059 27.3333C55.2909 27.3333 56.3889 27.7909 57.3 28.7059C58.2111 29.621 58.6667 30.721 58.6667 32.0059C58.6667 33.2909 58.2091 34.3889 57.2941 35.3C56.379 36.2111 55.279 36.6667 53.9941 36.6667ZM32 32C29.7778 32 27.8889 31.2222 26.3333 29.6667C24.7778 28.1111 24 26.2222 24 24C24 21.7778 24.7778 19.8889 26.3333 18.3333C27.8889 16.7778 29.7778 16 32 16C34.2222 16 36.1111 16.7778 37.6667 18.3333C39.2222 19.8889 40 21.7778 40 24C40 26.2222 39.2222 28.1111 37.6667 29.6667C36.1111 31.2222 34.2222 32 32 32ZM32 20C30.8667 20 29.9167 20.3833 29.15 21.15C28.3833 21.9167 28 22.8667 28 24C28 25.1333 28.3833 26.0833 29.15 26.85C29.9167 27.6167 30.8667 28 32 28C33.1333 28 34.0833 27.6167 34.85 26.85C35.6167 26.0833 36 25.1333 36 24C36 22.8667 35.6167 21.9167 34.85 21.15C34.0833 20.3833 33.1333 20 32 20Z" fill="#7257CB"/>
</g>
<defs>
<clipPath id="clip0_190_625">
<rect width="64" height="64" fill="white"/>
</clipPath>
</defs>
</svg>
