<svg width="65" height="64" viewBox="0 0 65 64" fill="none" xmlns="http://www.w3.org/2000/svg">
<path d="M32.7336 56C32.1558 56 31.678 55.8111 31.3002 55.4333C30.9225 55.0556 30.7336 54.5778 30.7336 54V50.4C28.6002 50.0444 26.778 49.2889 25.2669 48.1333C23.7558 46.9778 22.578 45.5111 21.7336 43.7333C21.5113 43.2444 21.5113 42.7333 21.7336 42.2C21.9558 41.6667 22.3336 41.2889 22.8669 41.0667C23.3558 40.8444 23.8558 40.8444 24.3669 41.0667C24.878 41.2889 25.2669 41.6444 25.5336 42.1333C26.3336 43.6444 27.378 44.7778 28.6669 45.5333C29.9558 46.2889 31.4447 46.6667 33.1336 46.6667C35.2669 46.6667 37.0225 46.1333 38.4002 45.0667C39.778 44 40.4669 42.5333 40.4669 40.6667C40.4669 38.7111 39.8558 37.2 38.6336 36.1333C37.4113 35.0667 35.1113 33.9778 31.7336 32.8667C28.5336 31.8444 26.1447 30.4889 24.5669 28.8C22.9891 27.1111 22.2002 25 22.2002 22.4667C22.2002 20.0222 22.9891 17.9778 24.5669 16.3333C26.1447 14.6889 28.2002 13.7556 30.7336 13.5333V10C30.7336 9.42222 30.9225 8.94444 31.3002 8.56667C31.678 8.18889 32.1558 8 32.7336 8C33.3113 8 33.7891 8.18889 34.1669 8.56667C34.5447 8.94444 34.7336 9.42222 34.7336 10V13.5333C36.3336 13.7556 37.7669 14.2444 39.0336 15C40.3002 15.7556 41.3558 16.7333 42.2002 17.9333C42.5113 18.3778 42.578 18.8556 42.4002 19.3667C42.2225 19.8778 41.8669 20.2444 41.3336 20.4667C40.8447 20.6889 40.3336 20.7111 39.8002 20.5333C39.2669 20.3556 38.8225 20.0222 38.4669 19.5333C37.8447 18.7333 37.078 18.1444 36.1669 17.7667C35.2558 17.3889 34.1558 17.2 32.8669 17.2C30.8225 17.2 29.2002 17.6667 28.0002 18.6C26.8002 19.5333 26.2002 20.8 26.2002 22.4C26.2002 24.0889 26.8669 25.4556 28.2002 26.5C29.5336 27.5444 32.0002 28.6222 35.6002 29.7333C38.6225 30.6667 40.8558 32.0111 42.3002 33.7667C43.7447 35.5222 44.4669 37.7333 44.4669 40.4C44.4669 43.2 43.6447 45.4556 42.0002 47.1667C40.3558 48.8778 37.9336 49.9778 34.7336 50.4667V54C34.7336 54.5778 34.5447 55.0556 34.1669 55.4333C33.7891 55.8111 33.3113 56 32.7336 56Z" fill="#7257CB"/>
</svg>
