<svg width="65" height="64" viewBox="0 0 65 64" fill="none" xmlns="http://www.w3.org/2000/svg">
<path d="M52.3335 58.6668H12.3335C11.2668 58.6668 10.3335 58.2668 9.5335 57.4668C8.7335 56.6668 8.3335 55.7334 8.3335 54.6668V19.3334C8.3335 18.2667 8.7335 17.3334 9.5335 16.5334C10.3335 15.7334 11.2668 15.3334 12.3335 15.3334H19.6668C19.6668 11.8223 20.8446 8.83342 23.2002 6.36675C25.5557 3.90008 28.4891 2.66675 32.0002 2.66675C35.5113 2.66675 38.5557 3.90175 41.1335 6.37175C43.7113 8.84175 45.0002 11.829 45.0002 15.3334H52.3335C53.4002 15.3334 54.3335 15.7334 55.1335 16.5334C55.9335 17.3334 56.3335 18.2667 56.3335 19.3334V54.6668C56.3335 55.7334 55.9335 56.6668 55.1335 57.4668C54.3335 58.2668 53.4002 58.6668 52.3335 58.6668ZM23.6668 15.3334H41.0002C41.0002 12.889 40.1668 10.8334 38.5002 9.16675C36.8335 7.50008 34.7779 6.66675 32.3335 6.66675C29.8891 6.66675 27.8335 7.50008 26.1668 9.16675C24.5002 10.8334 23.6668 12.889 23.6668 15.3334ZM52.3335 54.6668V19.3334H12.3335V54.6668H52.3335ZM32.3151 35.3334C35.5917 35.3334 38.5584 34.189 41.2151 31.9001C43.8718 29.6112 45.2002 27.0445 45.2002 24.2001C45.2002 23.7112 45.0002 23.2779 44.6002 22.9001C44.2002 22.5223 43.7079 22.3334 43.1234 22.3334C42.6421 22.3334 42.2123 22.5001 41.8341 22.8334C41.4559 23.1667 41.2224 23.6001 41.1335 24.1334C40.6891 26.2223 39.6335 27.9445 37.9668 29.3001C36.3002 30.6556 34.4224 31.3334 32.3335 31.3334C30.2446 31.3334 28.3668 30.6556 26.7002 29.3001C25.0335 27.9445 23.9779 26.2223 23.5335 24.1334C23.4446 23.6001 23.2002 23.1667 22.8002 22.8334C22.4002 22.5001 21.9557 22.3334 21.4668 22.3334C20.9335 22.3334 20.4668 22.5223 20.0668 22.9001C19.6668 23.2779 19.4668 23.7112 19.4668 24.2001C19.4668 27.0476 20.7891 29.615 23.4335 31.9024C26.0779 34.1897 29.0385 35.3334 32.3151 35.3334Z" fill="#7257CB"/>
</svg>
