<svg width="36" height="32" viewBox="0 0 36 32" fill="none" xmlns="http://www.w3.org/2000/svg">
<path d="M11.75 22.2498H12.6667L21.8958 13.0207L20.9792 12.104L11.75 21.3332V22.2498ZM24.5417 12.1248L21.875 9.45817L22.75 8.58317C22.9861 8.34706 23.2778 8.229 23.625 8.229C23.9722 8.229 24.2639 8.34706 24.5 8.58317L25.4167 9.49984C25.6528 9.73595 25.7708 10.0276 25.7708 10.3748C25.7708 10.7221 25.6528 11.0137 25.4167 11.2498L24.5417 12.1248ZM23.6667 12.9998L13.1667 23.4998H10.5V20.8332L21 10.3332L23.6667 12.9998ZM21.4375 12.5623L20.9792 12.104L21.8958 13.0207L21.4375 12.5623Z" fill="#7257CB"/>
</svg>
