<svg width="65" height="64" viewBox="0 0 65 64" fill="none" xmlns="http://www.w3.org/2000/svg">
<path d="M32.6668 31.9334C29.7335 31.9334 27.3335 31 25.4668 29.1334C23.6002 27.2667 22.6668 24.8667 22.6668 21.9334C22.6668 19 23.6002 16.6 25.4668 14.7333C27.3335 12.8667 29.7335 11.9333 32.6668 11.9333C35.6002 11.9333 38.0002 12.8667 39.8668 14.7333C41.7335 16.6 42.6668 19 42.6668 21.9334C42.6668 24.8667 41.7335 27.2667 39.8668 29.1334C38.0002 31 35.6002 31.9334 32.6668 31.9334ZM50.0002 53.3334H15.3335C14.2335 53.3334 13.2918 52.9417 12.5085 52.1584C11.7252 51.375 11.3335 50.4334 11.3335 49.3334V47.0667C11.3335 45.3778 11.7557 43.9333 12.6002 42.7334C13.4446 41.5334 14.5335 40.6222 15.8668 40C18.8446 38.6667 21.7002 37.6667 24.4335 37C27.1668 36.3334 29.9113 36 32.6668 36C35.4224 36 38.1557 36.3445 40.8668 37.0333C43.5779 37.7222 46.4206 38.7154 49.3949 40.0129C50.7861 40.6408 51.9014 41.5511 52.7409 42.744C53.5804 43.9369 54.0002 45.3778 54.0002 47.0667V49.3334C54.0002 50.4334 53.6085 51.375 52.8252 52.1584C52.0418 52.9417 51.1002 53.3334 50.0002 53.3334ZM15.3335 49.3334H50.0002V47.0667C50.0002 46.3556 49.7891 45.6778 49.3668 45.0334C48.9446 44.3889 48.4224 43.9111 47.8002 43.6C44.9557 42.2222 42.3557 41.2778 40.0002 40.7667C37.6446 40.2556 35.2002 40 32.6668 40C30.1335 40 27.6668 40.2556 25.2668 40.7667C22.8668 41.2778 20.2668 42.2222 17.4668 43.6C16.8446 43.9111 16.3335 44.3889 15.9335 45.0334C15.5335 45.6778 15.3335 46.3556 15.3335 47.0667V49.3334ZM32.6668 27.9333C34.4002 27.9333 35.8335 27.3667 36.9668 26.2334C38.1002 25.1 38.6668 23.6667 38.6668 21.9334C38.6668 20.2 38.1002 18.7667 36.9668 17.6333C35.8335 16.5 34.4002 15.9333 32.6668 15.9333C30.9335 15.9333 29.5002 16.5 28.3668 17.6333C27.2335 18.7667 26.6668 20.2 26.6668 21.9334C26.6668 23.6667 27.2335 25.1 28.3668 26.2334C29.5002 27.3667 30.9335 27.9333 32.6668 27.9333Z" fill="#7257CB"/>
</svg>
