<svg width="123" height="20" viewBox="0 0 123 20" fill="none" xmlns="http://www.w3.org/2000/svg">
<path d="M8.72268 15.4616L6.12311 11.7066H5.96905H3.25382V15.4616H0.134277V1.98207H5.96905C7.16295 1.98207 8.19634 2.18105 9.06929 2.57902C9.95508 2.97698 10.6355 3.54184 11.1105 4.27358C11.5855 5.00533 11.823 5.87187 11.823 6.87318C11.823 7.87454 11.579 8.74112 11.0912 9.47284C10.6163 10.1917 9.93587 10.7437 9.05 11.1288L12.0733 15.4616H8.72268ZM8.66489 6.87318C8.66489 6.11579 8.42101 5.5381 7.93317 5.14012C7.44532 4.72933 6.73289 4.52392 5.79569 4.52392H3.25382V9.2225H5.79569C6.73289 9.2225 7.44532 9.01712 7.93317 8.60626C8.42101 8.19549 8.66489 7.61783 8.66489 6.87318ZM24.2309 10.3201C24.2309 10.3586 24.2116 10.6283 24.1731 11.1288H16.3358C16.477 11.7708 16.8108 12.2779 17.3371 12.6502C17.8634 13.0224 18.5182 13.2085 19.3012 13.2085C19.8404 13.2085 20.3154 13.1316 20.7262 12.9775C21.1499 12.8106 21.5414 12.5539 21.9009 12.2073L23.4991 13.9403C22.5235 15.0572 21.0986 15.6156 19.2242 15.6156C18.056 15.6156 17.0225 15.391 16.1239 14.9416C15.2253 14.4795 14.5321 13.8441 14.0442 13.0353C13.5564 12.2265 13.3125 11.3086 13.3125 10.2816C13.3125 9.26746 13.55 8.35592 14.025 7.54721C14.5128 6.72558 15.174 6.09011 16.0084 5.64079C16.8556 5.17864 17.7992 4.94756 18.839 4.94756C19.8532 4.94756 20.7711 5.1658 21.5928 5.60228C22.4144 6.03877 23.0562 6.6678 23.5184 7.48943C23.9934 8.29823 24.2309 9.2417 24.2309 10.3201ZM18.8583 7.2198C18.1779 7.2198 17.6066 7.41235 17.1446 7.79755C16.6824 8.18266 16.3999 8.709 16.2973 9.37657H21.4002C21.2975 8.72183 21.0151 8.20186 20.5529 7.81675C20.0907 7.41881 19.5259 7.2198 18.8583 7.2198ZM30.1274 4.94756C31.7321 4.94756 32.9645 5.33269 33.8246 6.10295C34.6848 6.86035 35.1148 8.0093 35.1148 9.54983V15.4616H32.3034V14.1714C31.7386 15.1343 30.6859 15.6156 29.1454 15.6156C28.3494 15.6156 27.6562 15.4809 27.0657 15.2112C26.4879 14.9416 26.045 14.5693 25.7369 14.0944C25.4289 13.6194 25.2748 13.0802 25.2748 12.4768C25.2748 11.514 25.6343 10.7566 26.3532 10.2046C27.0849 9.65257 28.2082 9.37657 29.723 9.37657H32.1109C32.1109 8.72183 31.9118 8.22115 31.5139 7.87453C31.116 7.51509 30.519 7.33537 29.723 7.33537C29.171 7.33537 28.6254 7.42518 28.0862 7.605C27.5599 7.7718 27.1105 8.00294 26.7383 8.29823L25.6599 6.19923C26.2248 5.80127 26.8988 5.49316 27.6818 5.27492C28.4778 5.05669 29.293 4.94756 30.1274 4.94756ZM29.8963 13.5937C30.4098 13.5937 30.8656 13.4782 31.2636 13.2471C31.6615 13.0031 31.944 12.6502 32.1109 12.188V11.1288H30.0504C28.818 11.1288 28.2018 11.5332 28.2018 12.342C28.2018 12.7272 28.3494 13.0353 28.6447 13.2663C28.9527 13.4846 29.37 13.5937 29.8963 13.5937ZM42.9531 15.6156C41.849 15.6156 40.8542 15.391 39.9684 14.9416C39.0954 14.4795 38.4086 13.8441 37.908 13.0353C37.4201 12.2265 37.1762 11.3086 37.1762 10.2816C37.1762 9.25463 37.4201 8.33672 37.908 7.52792C38.4086 6.71912 39.0954 6.09011 39.9684 5.64079C40.8542 5.17864 41.849 4.94756 42.9531 4.94756C44.0443 4.94756 44.9943 5.17864 45.803 5.64079C46.6247 6.09011 47.2216 6.73841 47.5939 7.5857L45.2639 8.8374C44.7247 7.88737 43.948 7.41235 42.9338 7.41235C42.1508 7.41235 41.5024 7.66915 40.9889 8.18266C40.4754 8.69617 40.2187 9.39577 40.2187 10.2816C40.2187 11.1674 40.4754 11.867 40.9889 12.3805C41.5024 12.894 42.1508 13.1508 42.9338 13.1508C43.9609 13.1508 44.7375 12.6758 45.2639 11.7258L47.5939 12.9968C47.2216 13.8183 46.6247 14.4602 45.803 14.9224C44.9943 15.3846 44.0443 15.6156 42.9531 15.6156ZM56.156 14.9609C55.8607 15.1791 55.4948 15.346 55.0584 15.4616C54.6347 15.5643 54.1854 15.6156 53.7104 15.6156C52.478 15.6156 51.5216 15.3011 50.8412 14.6721C50.1736 14.043 49.8398 13.1187 49.8398 11.8991V7.64349H48.2415V5.33269H49.8398V2.8101H52.8438V5.33269H55.4242V7.64349H52.8438V11.8607C52.8438 12.2971 52.953 12.6373 53.1712 12.8812C53.4023 13.1123 53.7232 13.2278 54.134 13.2278C54.609 13.2278 55.0134 13.0994 55.3472 12.8427L56.156 14.9609ZM57.8418 5.10161H60.8464V15.4616H57.8418V5.10161ZM59.3446 3.65738C58.7926 3.65738 58.343 3.49691 57.996 3.17597C57.6498 2.85503 57.4763 2.45706 57.4763 1.98207C57.4763 1.50708 57.6498 1.10911 57.996 0.788175C58.343 0.46723 58.7926 0.306763 59.3446 0.306763C59.8966 0.306763 60.3452 0.460815 60.6923 0.768911C61.0384 1.07702 61.212 1.46215 61.212 1.9243C61.212 2.42497 61.0384 2.84219 60.6923 3.17597C60.3452 3.49691 59.8966 3.65738 59.3446 3.65738ZM73.9172 5.10161L69.5455 15.4616H66.4458L62.0935 5.10161H65.1941L68.063 12.1495L71.0289 5.10161H73.9172ZM85.0089 10.3201C85.0089 10.3586 84.9895 10.6283 84.9517 11.1288H77.1138C77.255 11.7708 77.5892 12.2779 78.1153 12.6502C78.6415 13.0224 79.296 13.2085 80.0797 13.2085C80.6187 13.2085 81.0932 13.1316 81.504 12.9775C81.9277 12.8106 82.32 12.5539 82.679 12.2073L84.2769 13.9403C83.3012 15.0572 81.8769 15.6156 80.0021 15.6156C78.8344 15.6156 77.8006 15.391 76.9024 14.9416C76.0033 14.4795 75.3101 13.8441 74.8227 13.0353C74.3344 12.2265 74.0907 11.3086 74.0907 10.2816C74.0907 9.26746 74.328 8.35592 74.8033 7.54721C75.2907 6.72558 75.9517 6.09011 76.7861 5.64079C77.6335 5.17864 78.5778 4.94756 79.6172 4.94756C80.6317 4.94756 81.5492 5.1658 82.3707 5.60228C83.1923 6.03877 83.8347 6.6678 84.2963 7.48943C84.7717 8.29823 85.0089 9.2417 85.0089 10.3201ZM79.6366 7.2198C78.9563 7.2198 78.3849 7.41235 77.9224 7.79755C77.4609 8.18266 77.1784 8.709 77.075 9.37657H82.1787C82.0753 8.72183 81.7929 8.20186 81.3313 7.81675C80.8689 7.41881 80.304 7.2198 79.6366 7.2198ZM93.0553 1.98207C94.2498 1.98207 95.2827 2.18105 96.156 2.57902C97.0412 2.97698 97.7224 3.54184 98.1969 4.27358C98.6723 5.00533 98.9095 5.87187 98.9095 6.87318C98.9095 7.8617 98.6723 8.72829 98.1969 9.47284C97.7224 10.2046 97.0412 10.7694 96.156 11.1674C95.2827 11.5525 94.2498 11.7451 93.0553 11.7451H90.3406V15.4616H87.2206V1.98207H93.0553ZM92.8818 9.20321C93.8196 9.20321 94.5323 9.00429 95.0197 8.60626C95.508 8.19549 95.7517 7.61783 95.7517 6.87318C95.7517 6.11579 95.508 5.5381 95.0197 5.14012C94.5323 4.72933 93.8196 4.52392 92.8818 4.52392H90.3406V9.20321H92.8818ZM105.009 4.94756C106.614 4.94756 107.847 5.33269 108.707 6.10295C109.566 6.86035 109.997 8.0093 109.997 9.54983V15.4616H107.186V14.1714C106.621 15.1343 105.568 15.6156 104.027 15.6156C103.231 15.6156 102.538 15.4809 101.947 15.2112C101.369 14.9416 100.927 14.5693 100.619 14.0944C100.311 13.6194 100.157 13.0802 100.157 12.4768C100.157 11.514 100.517 10.7566 101.235 10.2046C101.967 9.65257 103.09 9.37657 104.605 9.37657H106.993C106.993 8.72183 106.793 8.22115 106.396 7.87453C105.998 7.51509 105.401 7.33537 104.605 7.33537C104.053 7.33537 103.507 7.42518 102.968 7.605C102.442 7.7718 101.993 8.00294 101.621 8.29823L100.541 6.19923C101.106 5.80127 101.781 5.49316 102.564 5.27492C103.36 5.05669 104.175 4.94756 105.009 4.94756ZM104.778 13.5937C105.292 13.5937 105.748 13.4782 106.145 13.2471C106.543 13.0031 106.826 12.6502 106.993 12.188V11.1288H104.933C103.7 11.1288 103.084 11.5332 103.084 12.342C103.084 12.7272 103.231 13.0353 103.527 13.2663C103.835 13.4846 104.252 13.5937 104.778 13.5937ZM122.811 5.10161L118.131 16.097C117.656 17.2909 117.065 18.1318 116.359 18.6196C115.666 19.1075 114.825 19.3514 113.837 19.3514C113.297 19.3514 112.765 19.268 112.239 19.1011C111.713 18.9342 111.282 18.7031 110.948 18.4079L112.046 16.2704C112.277 16.4758 112.541 16.6362 112.836 16.7518C113.143 16.8673 113.445 16.925 113.741 16.925C114.151 16.925 114.485 16.8224 114.742 16.617C114.999 16.4244 115.229 16.097 115.435 15.6349L115.474 15.5386L110.987 5.10161H114.088L116.995 12.1302L119.922 5.10161H122.811Z" fill="#FEFEFE"/>
</svg>
