<svg width="64" height="64" viewBox="0 0 64 64" fill="none" xmlns="http://www.w3.org/2000/svg">
<path d="M16 23.3333H24C24.5667 23.3333 25.0417 23.1406 25.4251 22.755C25.8084 22.3694 26 21.8916 26 21.3217C26 20.7517 25.8084 20.2778 25.4251 19.9C25.0417 19.5222 24.5667 19.3333 24 19.3333H16C15.4334 19.3333 14.9584 19.5261 14.575 19.9117C14.1917 20.2973 14 20.775 14 21.345C14 21.915 14.1917 22.3889 14.575 22.7667C14.9584 23.1444 15.4334 23.3333 16 23.3333ZM16 34H24C24.5667 34 25.0417 33.8072 25.4251 33.4217C25.8084 33.0361 26 32.5583 26 31.9883C26 31.4183 25.8084 30.9444 25.4251 30.5667C25.0417 30.1889 24.5667 30 24 30H16C15.4334 30 14.9584 30.1928 14.575 30.5783C14.1917 30.9639 14 31.4417 14 32.0117C14 32.5817 14.1917 33.0556 14.575 33.4333C14.9584 33.8111 15.4334 34 16 34ZM16 44.6667H24C24.5667 44.6667 25.0417 44.4739 25.4251 44.0883C25.8084 43.7027 26 43.225 26 42.655C26 42.085 25.8084 41.6111 25.4251 41.2333C25.0417 40.8556 24.5667 40.6667 24 40.6667H16C15.4334 40.6667 14.9584 40.8594 14.575 41.245C14.1917 41.6306 14 42.1084 14 42.6783C14 43.2483 14.1917 43.7222 14.575 44.1C14.9584 44.4778 15.4334 44.6667 16 44.6667ZM38.8 38.5333C38.9778 38.5333 39.1445 38.503 39.3 38.4424C39.4556 38.3818 39.6001 38.2788 39.7334 38.1333L49.6001 28.2C50.0445 27.7556 50.2778 27.2889 50.3001 26.8C50.3223 26.3111 50.1112 25.8444 49.6667 25.4C49.2637 25 48.7852 24.8 48.2312 24.8C47.6771 24.8 47.2001 25 46.8001 25.4L38.8 33.4L36.4001 31.0667C36 30.6667 35.5334 30.4667 35 30.4667C34.4667 30.4667 33.9914 30.6667 33.574 31.0667C33.1914 31.4667 33 31.9333 33 32.4667C33 33 33.2001 33.4667 33.6 33.8667L37.8667 38.1333C38 38.2788 38.1445 38.3818 38.3 38.4424C38.4556 38.503 38.6223 38.5333 38.8 38.5333ZM8.80005 56C7.73338 56 6.80005 55.6 6.00005 54.8C5.20005 54 4.80005 53.0667 4.80005 52V12C4.80005 10.9333 5.20005 10 6.00005 9.2C6.80005 8.4 7.73338 8 8.80005 8H55.2001C56.2667 8 57.2001 8.4 58.0001 9.2C58.8001 10 59.2001 10.9333 59.2001 12V52C59.2001 53.0667 58.8001 54 58.0001 54.8C57.2001 55.6 56.2667 56 55.2001 56H8.80005ZM8.80005 52H55.2001V12H8.80005V52Z" fill="#7257CB"/>
</svg>
