<svg width="32" height="28" viewBox="0 0 32 28" fill="none" xmlns="http://www.w3.org/2000/svg">
<path d="M6.99995 9.125H11.5C11.8187 9.125 12.0859 9.01656 12.3015 8.79969C12.5171 8.58279 12.625 8.31404 12.625 7.99344C12.625 7.67281 12.5171 7.40625 12.3015 7.19375C12.0859 6.98125 11.8187 6.875 11.5 6.875H6.99995C6.6812 6.875 6.41401 6.98344 6.19839 7.20031C5.98276 7.41721 5.87495 7.68596 5.87495 8.00656C5.87495 8.32719 5.98276 8.59375 6.19839 8.80625C6.41401 9.01875 6.6812 9.125 6.99995 9.125ZM6.99995 15.125H11.5C11.8187 15.125 12.0859 15.0166 12.3015 14.7997C12.5171 14.5828 12.625 14.314 12.625 13.9934C12.625 13.6728 12.5171 13.4063 12.3015 13.1938C12.0859 12.9813 11.8187 12.875 11.5 12.875H6.99995C6.6812 12.875 6.41401 12.9834 6.19839 13.2003C5.98276 13.4172 5.87495 13.686 5.87495 14.0066C5.87495 14.3272 5.98276 14.5938 6.19839 14.8063C6.41401 15.0188 6.6812 15.125 6.99995 15.125ZM6.99995 21.125H11.5C11.8187 21.125 12.0859 21.0166 12.3015 20.7997C12.5171 20.5828 12.625 20.314 12.625 19.9934C12.625 19.6728 12.5171 19.4062 12.3015 19.1938C12.0859 18.9813 11.8187 18.875 11.5 18.875H6.99995C6.6812 18.875 6.41401 18.9834 6.19839 19.2003C5.98276 19.4172 5.87495 19.686 5.87495 20.0066C5.87495 20.3272 5.98276 20.5938 6.19839 20.8063C6.41401 21.0188 6.6812 21.125 6.99995 21.125ZM19.825 17.675C19.925 17.675 20.0187 17.6579 20.1062 17.6238C20.1937 17.5898 20.275 17.5318 20.35 17.45L25.9 11.8625C26.15 11.6125 26.2812 11.35 26.2937 11.075C26.3062 10.8 26.1875 10.5375 25.9375 10.2875C25.7108 10.0625 25.4416 9.95 25.13 9.95C24.8183 9.95 24.55 10.0625 24.325 10.2875L19.825 14.7875L18.475 13.475C18.25 13.25 17.9875 13.1375 17.6875 13.1375C17.3875 13.1375 17.1201 13.25 16.8853 13.475C16.6701 13.7 16.5625 13.9625 16.5625 14.2625C16.5625 14.5625 16.675 14.825 16.9 15.05L19.3 17.45C19.375 17.5318 19.4562 17.5898 19.5437 17.6238C19.6312 17.6579 19.725 17.675 19.825 17.675ZM2.94995 27.5C2.34995 27.5 1.82495 27.275 1.37495 26.825C0.924951 26.375 0.699951 25.85 0.699951 25.25V2.75C0.699951 2.15 0.924951 1.625 1.37495 1.175C1.82495 0.725 2.34995 0.5 2.94995 0.5H29.05C29.65 0.5 30.175 0.725 30.625 1.175C31.075 1.625 31.3 2.15 31.3 2.75V25.25C31.3 25.85 31.075 26.375 30.625 26.825C30.175 27.275 29.65 27.5 29.05 27.5H2.94995ZM2.94995 25.25H29.05V2.75H2.94995V25.25Z" fill="#FEFEFE"/>
</svg>
