<svg width="20" height="20" viewBox="0 0 20 20" fill="none" xmlns="http://www.w3.org/2000/svg">
<path d="M17.9625 19.1273L11.4354 12.6002C10.8938 13.0697 10.2622 13.4353 9.5407 13.6971C8.81921 13.9589 8.05148 14.0898 7.2375 14.0898C5.28458 14.0898 3.63176 13.4127 2.27906 12.0586C0.926352 10.7044 0.25 9.07037 0.25 7.15648C0.25 5.24259 0.927084 3.60856 2.28125 2.2544C3.63542 0.900228 5.27396 0.223145 7.19688 0.223145C9.11979 0.223145 10.7538 0.900228 12.099 2.2544C13.4441 3.60856 14.1167 5.24395 14.1167 7.16054C14.1167 7.93422 13.9903 8.68218 13.7375 9.4044C13.4847 10.1266 13.1056 10.8037 12.6 11.4356L19.1813 17.9627C19.3438 18.1152 19.425 18.3022 19.425 18.5239C19.425 18.7456 19.3355 18.946 19.1565 19.125C18.9925 19.289 18.7911 19.3711 18.5523 19.3711C18.3136 19.3711 18.117 19.2898 17.9625 19.1273ZM7.21042 12.4648C8.67743 12.4648 9.92439 11.9457 10.9513 10.9075C11.9782 9.86933 12.4917 8.61898 12.4917 7.15648C12.4917 5.69398 11.9782 4.44363 10.9513 3.40544C9.92439 2.36724 8.67743 1.84815 7.21042 1.84815C5.72836 1.84815 4.46861 2.36724 3.43115 3.40544C2.39372 4.44363 1.875 5.69398 1.875 7.15648C1.875 8.61898 2.39372 9.86933 3.43115 10.9075C4.46861 11.9457 5.72836 12.4648 7.21042 12.4648Z" fill="#706A82"/>
</svg>
