<svg width="36" height="36" viewBox="0 0 36 36" fill="none" xmlns="http://www.w3.org/2000/svg">
<circle cx="18" cy="18" r="17" stroke="white" stroke-width="2"/>
<path d="M15.875 22.9793C15.75 22.9793 15.6285 22.955 15.5104 22.9063C15.3924 22.8577 15.2847 22.7848 15.1875 22.6876L11.4167 18.9168C11.2222 18.7223 11.125 18.4862 11.125 18.2084C11.125 17.9306 11.2222 17.6945 11.4167 17.5001C11.6111 17.3056 11.8438 17.2084 12.1146 17.2084C12.3854 17.2084 12.625 17.3056 12.8333 17.5001L15.875 20.5418L23.1667 13.2709C23.3611 13.0765 23.5938 12.9758 23.8646 12.9688C24.1354 12.9619 24.3681 13.0626 24.5625 13.2709C24.7569 13.4654 24.8542 13.7015 24.8542 13.9793C24.8542 14.257 24.7569 14.4931 24.5625 14.6876L16.5625 22.6876C16.4653 22.7848 16.3576 22.8577 16.2396 22.9063C16.1215 22.955 16 22.9793 15.875 22.9793Z" fill="white"/>
</svg>
