<svg width="32" height="36" viewBox="0 0 32 36" fill="none" xmlns="http://www.w3.org/2000/svg">
<path d="M5.05 36C4.25 36 3.55 35.7 2.95 35.1C2.35 34.5 2.05 33.8 2.05 33V4.5H1.5C1.075 4.5 0.71875 4.35542 0.43125 4.06625C0.14375 3.77705 0 3.41872 0 2.99125C0 2.56375 0.14375 2.20833 0.43125 1.925C0.71875 1.64167 1.075 1.5 1.5 1.5H9.4C9.4 1.06667 9.54375 0.708333 9.83125 0.425C10.1188 0.141667 10.475 0 10.9 0H21.1C21.525 0 21.8813 0.14375 22.1688 0.43125C22.4563 0.71875 22.6 1.075 22.6 1.5H30.5C30.925 1.5 31.2812 1.64458 31.5688 1.93375C31.8563 2.22295 32 2.58128 32 3.00875C32 3.43625 31.8563 3.79167 31.5688 4.075C31.2812 4.35833 30.925 4.5 30.5 4.5H29.95V33C29.95 33.8 29.65 34.5 29.05 35.1C28.45 35.7 27.75 36 26.95 36H5.05ZM5.05 4.5V33H26.95V4.5H5.05ZM10.35 27.2C10.35 27.625 10.4946 27.9813 10.7837 28.2688C11.0729 28.5562 11.4313 28.7 11.8587 28.7C12.2862 28.7 12.6417 28.5562 12.925 28.2688C13.2083 27.9813 13.35 27.625 13.35 27.2V10.25C13.35 9.825 13.2054 9.46875 12.9163 9.18125C12.6271 8.89375 12.2687 8.75 11.8413 8.75C11.4138 8.75 11.0583 8.89375 10.775 9.18125C10.4917 9.46875 10.35 9.825 10.35 10.25V27.2ZM18.65 27.2C18.65 27.625 18.7946 27.9813 19.0837 28.2688C19.3729 28.5562 19.7313 28.7 20.1588 28.7C20.5863 28.7 20.9417 28.5562 21.225 28.2688C21.5083 27.9813 21.65 27.625 21.65 27.2V10.25C21.65 9.825 21.5054 9.46875 21.2163 9.18125C20.9271 8.89375 20.5687 8.75 20.1413 8.75C19.7138 8.75 19.3583 8.89375 19.075 9.18125C18.7917 9.46875 18.65 9.825 18.65 10.25V27.2Z" fill="#FD4E35"/>
</svg>
