<svg xmlns="http://www.w3.org/2000/svg" width="14" height="16" fill="none"><path fill="#7257CB" d="M2.438 15.5a1.2 1.2 0 0 1-.875-.375 1.2 1.2 0 0 1-.375-.875V2.375h-.23a.603.603 0 0 1-.445-.18.61.61 0 0 1-.18-.449.61.61 0 0 1 .625-.621H4.25A.61.61 0 0 1 4.875.5h4.25c.177 0 .326.06.445.18.12.12.18.268.18.445h3.292c.177 0 .325.06.445.18.12.121.18.27.18.449a.61.61 0 0 1-.625.621h-.23V14.25a1.2 1.2 0 0 1-.374.875 1.2 1.2 0 0 1-.875.375H2.438Zm0-13.125V14.25h9.125V2.375H2.438Zm2.208 9.458c0 .177.06.326.18.446.121.12.27.18.449.18a.61.61 0 0 0 .621-.625V4.77a.603.603 0 0 0-.18-.445.61.61 0 0 0-.449-.18.61.61 0 0 0-.621.625v7.062Zm3.458 0c0 .177.06.326.181.446.12.12.27.18.448.18s.326-.06.444-.18a.61.61 0 0 0 .177-.446V4.771a.603.603 0 0 0-.18-.445.61.61 0 0 0-.448-.18.61.61 0 0 0-.621.625v7.062Z"/></svg>