<svg width="32" height="40" viewBox="0 0 32 40" fill="none" xmlns="http://www.w3.org/2000/svg">
<path d="M14.6 23.85V32.4C14.6 32.825 14.7446 33.1813 15.0337 33.4688C15.3229 33.7563 15.6813 33.9 16.1087 33.9C16.5362 33.9 16.8917 33.7563 17.175 33.4688C17.4583 33.1813 17.6 32.825 17.6 32.4V23.85L20.65 26.9C20.75 27 21 26.9667 21.4 26.8C21.8 26.6333 22.175 26.4833 22.525 26.35C22.875 26.2167 23.1167 26.1583 23.25 26.175C23.3833 26.1917 23.2167 26.4333 22.75 26.9C23.05 26.6 23.1917 26.25 23.175 25.85C23.1583 25.45 23 25.1 22.7 24.8L17.05 19.3C16.8833 19.1333 16.7145 19.0167 16.5434 18.95C16.3722 18.8833 16.1889 18.85 15.9934 18.85C15.7978 18.85 15.6167 18.8833 15.45 18.95C15.2833 19.0167 15.1167 19.1333 14.95 19.3L9.35 24.9C9.05 25.2 8.9 25.55 8.9 25.95C8.9 26.35 9.05 26.7065 9.35 27.0196C9.65 27.3065 10 27.45 10.4 27.45C10.8 27.45 11.15 27.3 11.45 27L14.6 23.85ZM3 40C2.2 40 1.5 39.7 0.9 39.1C0.3 38.5 0 37.8 0 37V3C0 2.2 0.3 1.5 0.9 0.9C1.5 0.3 2.2 0 3 0H19.8C20.2148 0 20.6102 0.0833333 20.9861 0.25C21.362 0.416667 21.6833 0.633333 21.95 0.9L31.1 10.05C31.3667 10.3167 31.5833 10.638 31.75 11.0139C31.9167 11.3898 32 11.7852 32 12.2V37C32 37.8 31.7 38.5 31.1 39.1C30.5 39.7 29.8 40 29 40H3ZM19.55 10.8V3H3V37H29V12.3H21.05C20.625 12.3 20.2688 12.1562 19.9813 11.8688C19.6938 11.5813 19.55 11.225 19.55 10.8Z" fill="white"/>
</svg>
