<svg width="48" height="48" viewBox="0 0 48 48" fill="none" xmlns="http://www.w3.org/2000/svg">
<path d="M22.6 27.85V36.4C22.6 36.825 22.7446 37.1813 23.0337 37.4688C23.3229 37.7563 23.6813 37.9 24.1087 37.9C24.5362 37.9 24.8917 37.7563 25.175 37.4688C25.4583 37.1813 25.6 36.825 25.6 36.4V27.85L28.65 30.9C28.75 31 29 30.9667 29.4 30.8C29.8 30.6333 30.175 30.4833 30.525 30.35C30.875 30.2167 31.1167 30.1583 31.25 30.175C31.3833 30.1917 31.2167 30.4333 30.75 30.9C31.05 30.6 31.1917 30.25 31.175 29.85C31.1583 29.45 31 29.1 30.7 28.8L25.05 23.3C24.8833 23.1333 24.7145 23.0167 24.5434 22.95C24.3722 22.8833 24.1889 22.85 23.9934 22.85C23.7978 22.85 23.6167 22.8833 23.45 22.95C23.2833 23.0167 23.1167 23.1333 22.95 23.3L17.35 28.9C17.05 29.2 16.9 29.55 16.9 29.95C16.9 30.35 17.05 30.7065 17.35 31.0196C17.65 31.3065 18 31.45 18.4 31.45C18.8 31.45 19.15 31.3 19.45 31L22.6 27.85ZM11 44C10.2 44 9.5 43.7 8.9 43.1C8.3 42.5 8 41.8 8 41V7C8 6.2 8.3 5.5 8.9 4.9C9.5 4.3 10.2 4 11 4H27.8C28.2148 4 28.6102 4.08333 28.9861 4.25C29.362 4.41667 29.6833 4.63333 29.95 4.9L39.1 14.05C39.3667 14.3167 39.5833 14.638 39.75 15.0139C39.9167 15.3898 40 15.7852 40 16.2V41C40 41.8 39.7 42.5 39.1 43.1C38.5 43.7 37.8 44 37 44H11ZM27.55 14.8V7H11V41H37V16.3H29.05C28.625 16.3 28.2688 16.1562 27.9813 15.8688C27.6938 15.5813 27.55 15.225 27.55 14.8Z" fill="#7257CB"/>
</svg>
